<?xml version="1.0" encoding="utf-8"?>
<!-- Generator: Adobe Illustrator 25.4.1, SVG Export Plug-In . SVG Version: 6.00 Build 0)  -->
<svg version="1.1" id="Ebene_1" xmlns="http://www.w3.org/2000/svg" xmlns:xlink="http://www.w3.org/1999/xlink" x="0px" y="0px"
	 viewBox="0 0 1080 1080" style="enable-background:new 0 0 1080 1080;" xml:space="preserve">
<style type="text/css">
	.st0{fill:#E30613;}
</style>
<g id="Ebene_2_00000003817091639944829220000013488531420735548821_">
	<g id="Ebene_1-2">
		<path id="ring-outside-new" class="st0" d="M697.4,145H382.6C251.4,145,145,248.5,145,376.2v327.7C145,831.5,251.4,935,382.6,935
			h314.8C828.6,935,935,831.5,935,703.8V376.2C935,248.5,828.6,145,697.4,145z M861.8,704.8c0,86.7-72.3,157-161.4,157H379.5
			c-89.1,0-161.4-70.3-161.4-157V375.2c0-86.7,72.3-157,161.4-157h320.9c89.1,0,161.4,70.3,161.4,157L861.8,704.8z"/>
	</g>
</g>
</svg>
