<?xml version="1.0" encoding="utf-8"?>
<!-- Generator: Adobe Illustrator 25.4.1, SVG Export Plug-In . SVG Version: 6.00 Build 0)  -->
<svg version="1.1" id="Ebene_1" xmlns="http://www.w3.org/2000/svg" xmlns:xlink="http://www.w3.org/1999/xlink" x="0px" y="0px"
	 viewBox="0 0 1080 1080" style="enable-background:new 0 0 1080 1080;" xml:space="preserve">
<g id="Ebene_2_00000106826032702620082210000009732740091137302461_">
	<g id="Ebene_1-2">
		<g id="font">
			<path d="M153.4,235.1c0-24.7,8.3-45.8,25-63.3s36.6-26.2,59.7-26.2c23.6,0,43.7,8.7,60.3,26.2s25,38.6,25,63.3
				c0,24.4-8.3,45.4-25,63s-36.7,26.5-60.3,26.5c-23.2,0-43.1-8.8-59.7-26.5S153.5,259.5,153.4,235.1z M316.4,404.6v516h-155v-516
				H316.4z"/>
			<path d="M576.9,404.6V478c45.8-56.3,99.4-84.4,160.8-84.4c51.3,0,94.2,17.1,128.6,51.4c34.4,34.3,51.6,83.4,51.6,147.2v328.3
				h-155V606c0-68.9-25.7-103.4-77.2-103.4c-36.8,0-73,28.4-108.8,85.3v332.7h-155v-516H576.9z"/>
		</g>
	</g>
</g>
</svg>
