<?xml version="1.0" encoding="utf-8"?>
<!-- Generator: Adobe Illustrator 25.4.1, SVG Export Plug-In . SVG Version: 6.00 Build 0)  -->
<svg version="1.1" id="Layer_1" xmlns="http://www.w3.org/2000/svg" xmlns:xlink="http://www.w3.org/1999/xlink" x="0px" y="0px"
	 viewBox="0 0 1080 1080" style="enable-background:new 0 0 1080 1080;" xml:space="preserve">
<style type="text/css">
	.st0{fill:#E60023;}
</style>
<g>
	<path class="st0" d="M540.4,0C242.5,0,0.9,241.6,0.9,539.6c0,228.7,142.1,424.1,342.8,502.7c-4.9-42.6-8.9-108.4,1.8-155
		c9.8-42.2,63.1-268.2,63.1-268.2s-16-32.4-16-79.9c0-75,43.5-131,97.7-131c46.2,0,68.4,34.6,68.4,75.9
		c0,46.2-29.3,115.5-44.9,179.9c-12.9,53.7,27.1,97.7,79.9,97.7c95.9,0,169.6-101.2,169.6-246.9c0-129.2-92.8-219.4-225.6-219.4
		c-153.7,0-243.8,115-243.8,234c0,46.2,17.8,95.9,40,123c4.4,5.3,4.9,10.2,3.6,15.5c-4,16.9-13.3,53.7-15.1,61.3
		c-2.2,9.8-8,12-18.2,7.1c-67.5-31.5-109.7-129.7-109.7-209.2c0-170.1,123.5-326.4,356.6-326.4c187,0,332.6,133.2,332.6,311.7
		c0,186.1-117.2,335.7-279.8,335.7c-54.6,0-106.1-28.4-123.5-62.2c0,0-27.1,103-33.8,128.3c-12,47.1-44.9,105.7-67.1,141.7
		c50.6,15.5,103.9,24,159.9,24c298,0,539.6-241.6,539.6-539.6C1080,241.6,838.4,0,540.4,0z"/>
</g>
</svg>
