<?xml version="1.0" encoding="utf-8"?>
<!-- Generator: Adobe Illustrator 25.4.1, SVG Export Plug-In . SVG Version: 6.00 Build 0)  -->
<svg version="1.1" id="Ebene_1" xmlns="http://www.w3.org/2000/svg" xmlns:xlink="http://www.w3.org/1999/xlink" x="0px" y="0px"
	 viewBox="0 0 1080 1080" style="enable-background:new 0 0 1080 1080;" xml:space="preserve">
<style type="text/css">
	.st0{fill-rule:evenodd;clip-rule:evenodd;fill:#FFFFFF;}
</style>
<g id="Ebene_2_00000046334808531546906880000013423209285232369043_">
	<g id="Ebene_1-2">
		<path class="st0" d="M652.9,417.7c45.7,32.6,100.4,50.1,156.5,50v-88.3c-32-6.8-61-23.5-83.1-47.6c-37.8-23.6-63.9-62.1-71.6-106
			h-81.8v448.2c-0.3,52.5-43,94.8-95.5,94.5c-29.4-0.2-57.1-14-75-37.4c-46.8-23.6-65.6-80.7-42-127.5c21-41.6,69.1-61.8,113.5-47.7
			v-89.3C361.2,469,270.6,561,270.6,674.1c-0.1,54.2,21.2,106.3,59.1,145c34.2,22.9,74.4,35.1,115.5,35.1
			c114.6,0,207.5-92.9,207.5-207.4L652.9,417.7z"/>
	</g>
</g>
</svg>
