<?xml version="1.0" encoding="utf-8"?>
<!-- Generator: Adobe Illustrator 25.4.1, SVG Export Plug-In . SVG Version: 6.00 Build 0)  -->
<svg version="1.1" id="Ebene_1" xmlns="http://www.w3.org/2000/svg" xmlns:xlink="http://www.w3.org/1999/xlink" x="0px" y="0px"
	 viewBox="0 0 1080 1080" style="enable-background:new 0 0 1080 1080;" xml:space="preserve">
<style type="text/css">
	.st0{fill-rule:evenodd;clip-rule:evenodd;fill:#6EC5CD;}
</style>
<g id="Ebene_2_00000096035505984481224740000007807866461490990225_">
	<g id="Ebene_1-2">
		<path class="st0" d="M809.3,379.4v-23.9c-29.4,0-58.2-8.2-83.1-23.7C748.3,356,777.4,372.6,809.3,379.4z M654.6,225.8
			c-0.7-4.3-1.3-8.6-1.7-12.9v-14.4H539.9v448.2c-0.2,52.5-43,94.8-95.4,94.6c-14.7-0.1-29.1-3.5-42.2-10.1
			c31.8,41.7,91.5,49.7,133.2,17.8c23.4-17.9,37.2-45.5,37.3-75V225.8H654.6z M473.8,466.7v-25.4c-9.4-1.3-19-1.9-28.5-1.9
			c-114.6,0-207.5,92.9-207.5,207.4c0,69.2,34.5,133.9,92,172.4c-38-38.7-59.2-90.8-59.1-145C270.6,561,361.2,469,473.8,466.7
			L473.8,466.7z"/>
	</g>
</g>
</svg>
