<?xml version="1.0" encoding="utf-8"?>
<!-- Generator: Adobe Illustrator 25.4.1, SVG Export Plug-In . SVG Version: 6.00 Build 0)  -->
<svg version="1.1" id="Ebene_1" xmlns="http://www.w3.org/2000/svg" xmlns:xlink="http://www.w3.org/1999/xlink" x="0px" y="0px"
	 viewBox="0 0 1080 1080" style="enable-background:new 0 0 1080 1080;" xml:space="preserve">
<style type="text/css">
	.st0{fill-rule:evenodd;clip-rule:evenodd;fill:#E62554;}
</style>
<g id="Ebene_2_00000132088424458884395770000008927614993091177640_">
	<g id="Ebene_1-2">
		<path class="st0" d="M685.7,445c45.6,32.6,100.4,50.1,156.5,50V382.9c-11,0-22.1-1.1-32.9-3.4v88.4c-56.1,0.1-110.8-17.4-156.5-50
			v229c0,114.6-92.9,207.4-207.5,207.4c-41.2,0-81.4-12.2-115.5-35.2c39,40,92.5,62.5,148.4,62.4c114.6,0,207.6-92.9,207.6-207.4
			V445L685.7,445z M726.3,331.8c-23.2-25.3-37.4-57.4-40.5-91.6v-14.4h-31.1C662.4,269.7,688.4,308.3,726.3,331.8L726.3,331.8z
			 M402.3,731.2c-31.7-41.7-23.7-101.2,18-133c16.5-12.6,36.8-19.4,57.6-19.4c9.8,0,19.5,1.5,28.8,4.5V468.6
			c-10.9-1.5-21.9-2.1-32.9-1.9V556c-49.9-15.9-103.3,11.7-119.2,61.6C340.4,662,360.6,710.2,402.3,731.2z"/>
	</g>
</g>
</svg>
