<?xml version="1.0" encoding="utf-8"?>
<!-- Generator: Adobe Illustrator 25.4.1, SVG Export Plug-In . SVG Version: 6.00 Build 0)  -->
<svg version="1.1" id="Ebene_1" xmlns="http://www.w3.org/2000/svg" xmlns:xlink="http://www.w3.org/1999/xlink" x="0px" y="0px"
	 viewBox="0 0 1080 1080" style="enable-background:new 0 0 1080 1080;" xml:space="preserve">
<style type="text/css">
	.st0{fill-rule:evenodd;clip-rule:evenodd;}
</style>
<g id="Ebene_2_00000134929178123827750120000009355218662011070084_">
	<g id="Ebene_1-2">
		<path class="st0" d="M667.5,308.2c55.2-4.6,81.3,18.2,112.2,40.1c31.6-4.3,57.9-17.3,82.1-29.4c-5.5,28.4-27.8,56.5-52,66.9v2.7
			l68.4-18.7c-11.8,31.7-43,45.8-63,69.6c3,217.1-182.2,423.8-429.8,380.1c-59.1-10.5-101.3-34.8-147.8-53.5v-2.7
			c79.2,2.3,153.8-12.2,188.9-53.5c-58.1-2.5-109-40.3-117.7-91c16.6,2.7,38.8,4.4,52-2.7c-56.4-9.2-99.6-59.7-98.6-125.8h2.7
			l49.3,13.4l-24.7-24.1c-22.6-48.7-30.5-89.8-11-147.2c79.1,58.4,134.2,131.8,273.8,133.8C523.6,367.1,612.3,312.7,667.5,308.2z"/>
	</g>
</g>
</svg>
