<?xml version="1.0" encoding="utf-8"?>
<!-- Generator: Adobe Illustrator 25.4.1, SVG Export Plug-In . SVG Version: 6.00 Build 0)  -->
<svg version="1.1" id="Ebene_1" xmlns="http://www.w3.org/2000/svg" xmlns:xlink="http://www.w3.org/1999/xlink" x="0px" y="0px"
	 viewBox="0 0 1080 1080" style="enable-background:new 0 0 1080 1080;" xml:space="preserve">
<style type="text/css">
	.st0{fill:#FFFFFF;}
</style>
<g id="Ebene_2_00000034090593345238603350000014133319267852194712_">
	<g id="svg8">
		<path id="ring" class="st0" d="M916.3,156.2C815.7,55.5,682,0.1,539.5,0C245.9,0,7,238.9,6.9,532.5C6.8,625.9,31.3,717.7,78,798.6
			L2.4,1074.5l282.4-74c78.1,42.5,165.6,64.8,254.5,64.8h0.2c293.5,0,532.5-238.9,532.6-532.4
			C1072.2,390.6,1016.8,256.9,916.3,156.2z M539.5,975.3h-0.2c-79.3,0-157.1-21.3-225.3-61.7l-16.2-9.6l-167.6,43.9L175,784.7
			L164.5,768c-44.3-70.5-67.8-152.2-67.7-235.5c0.1-244,198.7-442.5,442.9-442.5c118.3,0,229.4,46.1,313,129.8
			S982.3,414.8,982.3,533C982.1,776.8,783.5,975.3,539.5,975.3z"/>
	</g>
</g>
</svg>
