<?xml version="1.0" encoding="utf-8"?>
<!-- Generator: Adobe Illustrator 25.4.1, SVG Export Plug-In . SVG Version: 6.00 Build 0)  -->
<svg version="1.1" id="Ebene_1" xmlns="http://www.w3.org/2000/svg" xmlns:xlink="http://www.w3.org/1999/xlink" x="0px" y="0px"
	 viewBox="0 0 1080 1080" style="enable-background:new 0 0 1080 1080;" xml:space="preserve">
<g id="Ebene_2_00000116953948592181093520000008698892101480496285_">
	<g id="svg8">
		<path id="shadow" d="M303.4,909.6l16.1,9.6c68.2,40.4,146.1,61.7,225.3,61.7h0.2c244,0,442.6-198.5,442.7-442.5
			c0-118.3-46-229.5-129.6-313.1S663.4,95.5,545.1,95.4c-244.2,0-442.7,198.5-442.8,442.5c-0.1,83.3,23.4,165,67.7,235.6l10.6,16.7
			l-44.8,163.3L303.4,909.6z M7.9,1080l75.6-275.9c-46.6-80.9-71.2-172.7-71.1-266.2C12.6,244.3,251.4,5.5,544.9,5.5
			c142.5,0.1,276.3,55.6,376.8,156.2s155.9,234.5,155.9,376.7c-0.1,293.6-239.1,532.4-532.6,532.4h-0.2
			c-88.9,0-176.4-22.2-254.6-64.8L7.9,1080z"/>
	</g>
</g>
</svg>
