<?xml version="1.0" encoding="utf-8"?>
<!-- Generator: Adobe Illustrator 25.4.1, SVG Export Plug-In . SVG Version: 6.00 Build 0)  -->
<svg version="1.1" id="Ebene_1" xmlns="http://www.w3.org/2000/svg" xmlns:xlink="http://www.w3.org/1999/xlink" x="0px" y="0px"
	 viewBox="0 0 1080 1080" style="enable-background:new 0 0 1080 1080;" xml:space="preserve">
<style type="text/css">
	.st0{fill-rule:evenodd;clip-rule:evenodd;}
</style>
<g id="Ebene_2_00000154421097602221666740000014608676542144456880_">
	<g id="svg8">
		<path id="phone" class="st0" d="M406.4,309.8c-10-22.2-20.5-22.6-29.9-23c-7.8-0.3-16.6-0.3-25.5-0.3s-23.3,3.3-35.5,16.6
			c-12.2,13.3-46.6,45.5-46.6,111s47.7,128.7,54.3,137.6s92.1,147.5,227.3,200.9C663,797,685.8,788.2,710.2,786
			c24.4-2.2,78.7-32.2,89.8-63.3c11.1-31.1,11.1-57.7,7.8-63.3s-12.2-8.9-25.5-15.5c-13.3-6.7-78.7-38.8-90.9-43.3
			c-12.2-4.5-21.1-6.7-29.9,6.7c-8.9,13.3-34.4,43.3-42.1,52.2s-15.5,10-28.9,3.3c-13.4-6.6-56.2-20.7-107-66
			c-39.5-35.3-66.2-78.8-74-92.2c-7.8-13.4-0.8-20.5,5.9-27.1c6-6,13.3-15.6,20-23.3s8.9-13.3,13.3-22.2c4.4-8.9,2.2-16.7-1.1-23.3
			C444.1,402,418.2,336.1,406.4,309.8"/>
	</g>
</g>
</svg>
