<?xml version="1.0" encoding="utf-8"?>
<!-- Generator: Adobe Illustrator 25.4.1, SVG Export Plug-In . SVG Version: 6.00 Build 0)  -->
<svg version="1.1" id="Ebene_1" xmlns="http://www.w3.org/2000/svg" xmlns:xlink="http://www.w3.org/1999/xlink" x="0px" y="0px"
	 viewBox="0 0 1080 1080" style="enable-background:new 0 0 1080 1080;" xml:space="preserve">
<style type="text/css">
	.st0{fill:#FF0000;}
</style>
<g id="Ebene_2_00000131332772479686392840000004333762433083047334_">
	<g id="Ebene_1-2">
		<path id="button" class="st0" d="M1056.2,280.3c-12.6-46.6-49-83-95.6-95.6c-83.8-22.9-421.1-22.9-421.1-22.9
			s-337.3,0.7-421.1,23.5c-46.6,12.6-83,49-95.6,95.6c-25.3,148.9-35.2,375.9,0.7,518.8c12.6,46.6,49,83,95.6,95.6
			c83.8,22.9,421.1,22.9,421.1,22.9s337.3,0,421.1-22.9c46.6-12.6,83-49,95.6-95.6C1083.6,650.6,1091.8,423.8,1056.2,280.3z"/>
	</g>
</g>
</svg>
